<svg id="svg" xmlns="http://www.w3.org/2000/svg" xmlns:xlink="http://www.w3.org/1999/xlink" width="50" height="50" viewBox="0, 0, 400,400"><g id="svgg"><path id="path0" d="M145.253 53.071 C 145.253 53.379,143.954 55.536,143.134 56.590 C 142.976 56.793,142.107 58.203,141.204 59.724 C 140.301 61.244,139.457 62.571,139.329 62.673 C 139.201 62.774,139.030 63.030,138.949 63.241 C 138.741 63.784,131.826 74.953,128.535 80.062 C 126.896 82.607,126.897 82.557,128.420 84.914 C 132.123 90.650,133.016 92.064,133.448 92.880 C 133.710 93.374,134.075 93.955,134.259 94.170 C 134.443 94.386,135.158 95.475,135.848 96.590 C 137.109 98.628,139.861 103.037,141.371 105.438 C 141.818 106.147,142.929 107.889,143.840 109.309 C 145.601 112.054,148.770 117.074,150.472 119.816 C 151.038 120.728,151.672 121.675,151.880 121.920 C 152.088 122.165,152.258 122.433,152.258 122.516 C 152.258 122.655,156.315 129.182,161.135 136.799 C 162.234 138.536,163.329 140.278,163.568 140.670 C 163.806 141.062,165.050 143.037,166.333 145.059 C 167.615 147.080,168.730 148.898,168.812 149.097 C 168.893 149.296,169.103 149.633,169.279 149.845 C 169.454 150.057,169.975 150.811,170.436 151.521 C 171.775 153.583,172.457 153.259,174.317 149.677 C 175.212 147.954,176.090 146.488,176.267 146.421 C 176.445 146.353,176.590 146.104,176.591 145.868 C 176.591 145.631,177.851 143.198,179.391 140.461 C 180.931 137.724,182.345 135.088,182.534 134.603 C 182.723 134.119,182.953 133.797,183.044 133.889 C 183.364 134.209,186.175 138.644,186.175 138.829 C 186.175 138.932,186.481 139.466,186.855 140.015 C 187.229 140.564,187.946 141.677,188.450 142.488 C 188.953 143.300,189.785 144.627,190.297 145.438 C 193.681 150.795,196.866 156.073,196.866 156.324 C 196.866 156.487,196.993 156.676,197.149 156.743 C 197.304 156.811,198.172 158.111,199.078 159.631 C 199.984 161.152,200.853 162.452,201.008 162.519 C 201.163 162.587,201.290 162.820,201.290 163.037 C 201.290 163.255,201.681 163.946,202.159 164.573 C 202.636 165.201,203.388 166.378,203.828 167.189 C 204.269 168.000,204.952 169.161,205.346 169.770 C 205.740 170.378,206.404 171.456,206.822 172.166 C 207.240 172.876,208.069 174.203,208.664 175.115 C 209.258 176.028,210.084 177.355,210.498 178.065 C 214.954 185.699,216.691 187.154,215.717 182.436 C 215.462 181.202,215.100 179.921,214.912 179.589 C 214.724 179.258,214.256 177.742,213.871 176.221 C 213.487 174.700,212.729 171.963,212.187 170.138 C 210.201 163.452,209.344 160.500,208.705 158.157 C 208.346 156.839,207.951 155.512,207.826 155.207 C 207.702 154.903,207.326 153.576,206.991 152.258 C 206.656 150.940,206.238 149.530,206.061 149.124 C 205.884 148.719,205.479 147.309,205.161 145.991 C 204.843 144.673,204.428 143.263,204.239 142.857 C 204.049 142.452,203.572 140.876,203.177 139.355 C 202.783 137.834,202.105 135.429,201.672 134.009 C 201.239 132.590,200.555 130.184,200.154 128.664 C 199.752 127.143,199.268 125.567,199.078 125.161 C 198.887 124.756,198.413 123.180,198.024 121.659 C 196.820 116.954,195.713 113.029,195.374 112.258 C 195.196 111.853,194.776 110.525,194.441 109.309 C 192.927 103.810,192.169 101.157,191.967 100.645 C 191.846 100.341,191.473 99.014,191.139 97.696 C 190.804 96.378,190.385 94.968,190.209 94.562 C 190.032 94.157,189.748 93.244,189.576 92.535 C 189.040 90.310,188.107 90.674,185.806 94.007 C 182.089 99.392,180.319 101.912,178.294 104.702 C 177.190 106.223,175.596 108.502,174.752 109.766 C 172.807 112.678,172.687 112.738,172.149 111.063 C 171.904 110.301,171.326 108.848,170.863 107.834 C 169.996 105.933,169.884 105.680,166.636 98.249 C 165.572 95.816,164.318 92.995,163.850 91.982 C 163.381 90.968,162.886 89.682,162.749 89.124 C 162.612 88.567,162.386 88.111,162.246 88.111 C 162.106 88.111,161.782 87.488,161.525 86.728 C 161.269 85.968,160.673 84.516,160.201 83.502 C 158.105 78.997,157.788 78.277,157.788 78.017 C 157.788 77.866,157.365 76.799,156.847 75.645 C 156.329 74.492,155.683 73.051,155.411 72.442 C 155.138 71.834,154.400 70.227,153.771 68.871 C 153.142 67.515,152.627 66.289,152.627 66.147 C 152.627 66.004,152.307 65.205,151.915 64.372 C 149.708 59.671,147.097 53.572,147.097 53.118 C 147.097 52.898,146.682 52.719,146.175 52.719 C 145.668 52.719,145.253 52.877,145.253 53.071 M99.908 162.254 C 98.995 162.424,96.288 162.822,93.892 163.137 C 91.496 163.453,89.256 163.864,88.915 164.049 C 88.574 164.235,87.300 164.634,86.083 164.935 C 83.592 165.552,79.543 166.988,79.263 167.354 C 79.161 167.487,78.262 167.902,77.263 168.277 C 73.297 169.765,66.218 174.239,60.645 178.780 C 50.568 186.990,37.235 206.415,37.235 212.885 C 37.235 213.166,37.100 213.450,36.936 213.518 C 36.584 213.662,35.552 217.877,34.784 222.304 C 34.486 224.028,34.074 226.267,33.870 227.281 C 33.403 229.598,33.664 244.359,34.239 248.111 C 34.722 251.269,36.483 258.803,36.867 259.355 C 37.007 259.558,37.436 260.843,37.819 262.212 C 38.203 263.581,38.643 264.700,38.797 264.700 C 38.952 264.700,39.078 264.863,39.078 265.062 C 39.078 265.523,41.767 271.056,42.933 272.995 C 43.421 273.806,44.106 274.968,44.455 275.576 C 47.427 280.751,54.959 289.170,61.607 294.749 C 65.236 297.794,72.058 301.996,76.879 304.156 C 78.291 304.789,79.718 305.451,80.050 305.626 C 82.268 306.797,90.200 309.011,94.993 309.797 C 96.447 310.035,97.760 310.355,97.912 310.507 C 98.297 310.894,118.253 310.855,118.493 310.467 C 118.601 310.293,119.783 310.038,121.121 309.901 C 122.459 309.764,123.832 309.500,124.173 309.315 C 124.514 309.130,126.083 308.709,127.661 308.379 C 129.238 308.049,130.980 307.543,131.532 307.256 C 132.083 306.968,132.740 306.732,132.991 306.730 C 134.331 306.724,143.178 302.541,147.281 299.975 C 154.529 295.441,164.034 286.664,168.040 280.806 C 168.620 279.957,169.899 278.101,170.883 276.682 C 173.010 273.613,176.974 265.969,177.884 263.180 C 178.240 262.090,178.652 261.032,178.800 260.829 C 178.948 260.627,179.354 259.217,179.701 257.696 C 180.049 256.175,180.486 254.599,180.673 254.194 C 181.157 253.142,182.077 247.173,182.519 242.212 C 182.954 237.333,182.935 237.362,186.359 236.484 C 187.779 236.121,189.106 235.702,189.309 235.553 C 189.642 235.309,191.259 235.019,199.663 233.693 C 205.729 232.735,218.636 234.884,224.365 237.805 C 225.142 238.201,225.966 238.525,226.196 238.525 C 226.475 238.525,226.696 240.158,226.860 243.410 C 226.995 246.097,227.334 249.456,227.614 250.876 C 228.261 254.161,229.526 259.150,230.007 260.306 C 230.210 260.797,230.995 262.774,231.750 264.700 C 232.506 266.627,233.220 268.286,233.336 268.387 C 233.453 268.488,234.210 269.899,235.018 271.521 C 235.827 273.143,236.579 274.553,236.691 274.654 C 236.803 274.756,237.618 275.917,238.501 277.235 C 247.464 290.603,262.939 302.782,275.945 306.703 C 276.756 306.948,277.751 307.301,278.157 307.487 C 279.166 307.951,284.602 309.280,287.742 309.830 C 289.161 310.079,290.581 310.400,290.896 310.545 C 292.746 311.391,314.506 310.364,316.866 309.318 C 317.272 309.139,318.923 308.712,320.536 308.371 C 322.149 308.030,323.974 307.535,324.592 307.273 C 325.209 307.010,327.124 306.270,328.848 305.628 C 344.291 299.873,360.359 285.076,367.888 269.677 C 370.173 265.002,370.729 263.646,371.964 259.724 C 372.603 257.696,373.306 255.464,373.526 254.763 C 377.247 242.946,375.255 218.739,369.559 206.567 C 369.066 205.515,368.664 204.575,368.664 204.478 C 368.664 203.866,362.857 194.271,361.292 192.295 C 351.798 180.313,336.435 168.533,327.558 166.428 C 326.949 166.284,326.283 166.034,326.076 165.873 C 325.869 165.713,324.542 165.307,323.127 164.971 C 321.711 164.636,320.221 164.208,319.816 164.021 C 318.862 163.580,312.167 162.586,310.138 162.583 C 309.276 162.582,308.571 162.415,308.571 162.212 C 308.571 161.725,295.844 161.722,293.110 162.208 C 291.982 162.409,289.075 162.833,286.649 163.150 C 284.224 163.467,282.067 163.853,281.857 164.006 C 281.647 164.160,280.562 164.498,279.447 164.759 C 277.538 165.205,273.379 166.698,272.100 167.397 C 271.781 167.571,269.945 168.467,268.018 169.388 C 261.323 172.589,254.819 177.278,248.827 183.225 C 245.394 186.632,243.720 188.520,240.454 192.670 C 235.683 198.733,230.099 210.251,228.908 216.486 C 228.665 217.760,228.342 218.968,228.191 219.171 C 228.040 219.373,227.800 220.410,227.656 221.475 C 227.513 222.539,227.287 223.408,227.154 223.405 C 227.021 223.403,224.839 223.056,222.304 222.634 C 219.770 222.213,216.618 221.700,215.300 221.496 C 211.893 220.967,194.702 220.964,191.336 221.491 C 189.816 221.729,187.161 222.172,185.438 222.475 C 183.714 222.779,182.116 223.030,181.886 223.034 C 181.651 223.038,181.352 222.111,181.205 220.922 C 181.061 219.756,180.814 218.636,180.657 218.433 C 180.500 218.230,180.082 216.737,179.728 215.115 C 179.374 213.493,178.976 212.083,178.843 211.982 C 178.711 211.880,178.332 210.968,178.001 209.954 C 177.320 207.867,175.771 204.149,175.466 203.871 C 175.356 203.770,174.822 202.774,174.282 201.659 C 173.369 199.776,171.142 196.069,170.401 195.198 C 170.224 194.990,169.761 194.326,169.371 193.723 C 168.561 192.469,168.270 192.103,165.258 188.571 C 161.713 184.416,157.601 180.466,152.753 176.562 C 146.755 171.733,136.095 166.356,129.032 164.598 C 123.733 163.279,122.083 162.966,119.160 162.727 C 117.482 162.590,116.021 162.335,115.913 162.160 C 115.665 161.760,102.135 161.839,99.908 162.254 M117.235 175.466 C 120.549 175.938,127.344 177.367,127.742 177.676 C 127.945 177.834,128.608 178.082,129.217 178.227 C 131.896 178.866,138.097 182.020,143.132 185.304 C 153.623 192.147,164.583 206.092,167.721 216.590 C 167.964 217.401,168.320 218.396,168.512 218.802 C 168.896 219.611,170.160 225.528,170.756 229.309 C 171.242 232.392,170.973 247.657,170.415 248.664 C 170.190 249.069,169.730 250.894,169.392 252.719 C 169.054 254.544,168.644 256.203,168.480 256.406 C 168.317 256.608,167.985 257.521,167.743 258.433 C 167.500 259.346,166.904 260.968,166.416 262.039 C 165.929 263.109,165.530 264.042,165.530 264.111 C 165.530 264.297,161.788 271.047,161.433 271.501 C 161.267 271.715,160.024 273.382,158.672 275.207 C 154.958 280.221,148.921 286.003,143.163 290.061 C 141.359 291.331,136.062 294.141,132.535 295.697 C 130.389 296.644,125.690 298.192,124.240 298.429 C 123.327 298.579,122.415 298.829,122.212 298.986 C 120.790 300.085,103.401 300.489,97.880 299.551 C 80.487 296.596,63.359 285.143,55.173 270.994 C 54.754 270.270,54.307 269.594,54.181 269.493 C 53.684 269.094,49.770 261.039,49.770 260.415 C 49.770 260.299,49.525 259.681,49.226 259.042 C 45.482 251.037,44.843 232.512,47.895 220.486 C 48.329 218.776,48.823 217.200,48.992 216.984 C 49.161 216.767,49.416 216.092,49.558 215.484 C 49.821 214.365,51.694 210.050,52.359 209.032 C 52.558 208.728,52.886 208.095,53.089 207.625 C 53.291 207.155,53.847 206.242,54.324 205.597 C 54.800 204.952,55.282 204.175,55.394 203.871 C 55.816 202.723,61.990 195.451,65.124 192.411 C 69.992 187.689,75.324 183.805,80.184 181.440 C 81.198 180.946,82.945 180.089,84.065 179.535 C 85.186 178.981,86.679 178.404,87.383 178.254 C 88.087 178.103,88.829 177.854,89.032 177.700 C 89.394 177.427,95.894 176.002,99.171 175.479 C 101.429 175.118,114.724 175.109,117.235 175.466 M310.046 175.471 C 313.263 175.898,319.637 177.228,320.553 177.663 C 320.959 177.856,321.954 178.211,322.765 178.452 C 324.501 178.968,331.789 182.448,332.411 183.058 C 332.647 183.290,333.352 183.691,333.978 183.950 C 334.603 184.209,335.115 184.540,335.115 184.686 C 335.115 184.832,335.550 185.149,336.081 185.391 C 340.543 187.424,350.803 198.183,355.295 205.541 C 362.696 217.663,365.855 234.417,363.322 248.111 C 362.367 253.275,360.929 258.390,359.642 261.198 C 356.272 268.556,354.733 271.171,350.744 276.313 C 346.440 281.861,339.657 287.919,333.825 291.422 C 331.691 292.703,326.803 295.057,324.240 296.038 C 323.023 296.503,321.530 297.094,320.922 297.350 C 320.313 297.607,318.737 298.020,317.419 298.270 C 316.101 298.519,314.857 298.849,314.654 299.003 C 313.210 300.101,293.381 300.415,289.217 299.405 C 288.406 299.209,286.415 298.709,284.793 298.294 C 272.429 295.133,260.810 287.365,251.700 276.170 C 248.761 272.558,242.590 261.839,242.583 260.332 C 242.582 260.059,242.337 259.312,242.039 258.673 C 241.575 257.679,240.789 255.048,240.151 252.350 C 238.268 244.394,238.270 230.348,240.154 222.857 C 240.957 219.666,241.588 217.530,242.004 216.590 C 242.273 215.982,242.701 214.820,242.956 214.009 C 243.447 212.440,246.893 205.655,247.356 205.346 C 247.508 205.244,247.846 204.747,248.108 204.240 C 248.990 202.532,254.339 195.964,256.857 193.498 C 267.730 182.846,277.861 177.681,292.166 175.500 C 294.742 175.107,307.154 175.087,310.046 175.471 " stroke="none" fill="#000000" fill-rule="evenodd"></path></g></svg>