<?xml version="1.0" encoding="utf-8"?>
<!-- Generator: Adobe Illustrator 16.0.0, SVG Export Plug-In . SVG Version: 6.00 Build 0)  -->
<!DOCTYPE svg PUBLIC "-//W3C//DTD SVG 1.1//EN" "http://www.w3.org/Graphics/SVG/1.1/DTD/svg11.dtd">
<svg version="1.1" id="Layer_1" xmlns="http://www.w3.org/2000/svg" xmlns:xlink="http://www.w3.org/1999/xlink" x="0px" y="0px"
	 width="45px" height="35px" viewBox="0 0 864 864" enable-background="new 0 0 864 864" xml:space="preserve">
<path fill-rule="evenodd" clip-rule="evenodd" d="M783.643,750.148c-240.603,0-479.883,0-720.451,0
	c120.142-208.568,239.82-416.33,360.222-625.348C543.739,333.683,663.415,541.437,783.643,750.148z M407.568,542.053
	c0-49.125,0.001-98.251-0.001-147.376c0-5.747-0.183-6.086-5.96-4.95c-8.412,1.655-16.908,3.158-25.093,5.633
	c-75.33,22.779-121.708,102.527-104.491,179.349c14.323,63.909,64.998,110.727,129.898,120.011c5.641,0.807,5.646,0.807,5.646-4.887
	C407.568,640.572,407.568,591.312,407.568,542.053z M440.72,541.953c0,16.513-0.003,33.023,0,49.536
	c0.005,32.89,0.005,65.778,0.028,98.668c0.003,4.604,0.369,5.075,4.87,4.158c7.746-1.579,15.579-3.005,23.103-5.366
	c73.502-23.067,118.504-96.945,105.445-172.807c-11.208-65.113-62.847-116.048-127.755-126.015c-5.609-0.861-5.683-0.802-5.684,4.83
	C440.727,443.956,440.728,492.955,440.72,541.953z M609.545,515.292c6.572,92.335-31.142,158.724-113.753,200.514
	c76.677,0,152.599,0,229.533,0C686.422,648.433,647.983,581.862,609.545,515.292z M348.491,715.976
	c-79.277-40.292-117.242-104.504-114.056-193.489c-36.818,64.218-73.636,128.435-110.934,193.489
	C199.434,715.976,273.963,715.976,348.491,715.976z M538.432,394.519c0.308-0.273,0.615-0.546,0.923-0.819
	c-32.402-56.109-64.804-112.218-97.206-168.328c-0.37,0.156-0.74,0.312-1.111,0.467c-0.108,1.032-0.312,2.064-0.312,3.096
	c-0.014,40.791,0.02,81.581-0.062,122.371c-0.007,3.215,1.061,4.472,4.28,4.845c33.275,3.849,63.221,16.094,90.071,36.04
	C536.121,393.012,537.291,393.745,538.432,394.519z M310.428,389.954c0.331,0.279,0.661,0.56,0.992,0.839
	c1.006-0.595,2.058-1.125,3.012-1.794c26.692-18.71,56.185-29.979,88.66-33.162c3.77-0.369,4.543-1.982,4.537-5.4
	c-0.087-41.055-0.046-82.11-0.061-123.165c-0.001-1.329-0.229-2.658-0.35-3.987c-0.372-0.062-0.743-0.125-1.114-0.188
	C374.211,278.716,342.319,334.334,310.428,389.954z"/>
</svg>
